Filename:
The Bounty Hunter TS XViD - IMAGiNE
 
http://www.imdb.com/title/tt1038919/

DETAILS:

Video
Format                           : MPEG-4 Visual
Format profile                   : Streaming Video@L1
Format settings, BVOP            : Yes
Format settings, QPel            : No
Format settings, GMC             : No warppoints
Format settings, Matrix          : Default
Codec ID                         : XVID
Codec ID/Hint                    : XviD
Duration                         : 1h 46mn
Bit rate                         : 1 713 Kbps
Width                            : 720 pixels
Height                           : 304 pixels
Display aspect ratio             : 2.35
Frame rate                       : 25.000 fps
Resolution                       : 24 bits
Colorimetry                      : 4:2:0
Scan type                        : Progressive
Bits/(Pixel*Frame)               : 0.313
Stream size                      : 1.27 GiB (94%)
Writing library                  : XviD 50

Audio
Format                           : MPEG Audio
Format version                   : Version 1
Format profile                   : Layer 3
Codec ID                         : 55
Codec ID/Hint                    : MP3
Duration                         : 1h 46mn
Bit rate mode                    : Constant
Bit rate                         : 96.0 Kbps
Channel(s)                       : 2 channels
Sampling rate                    : 44.1 KHz
Resolution                       : 16 bits
Stream size                      : 73.0 MiB (5%)
Alignment                        : Split accross interleaves
Interleave, duration             : 40 ms (1.00 video frame)
Interleave, preload duration     : 500 ms


NOTES:

IMAGiNE bringing you another release.....The bounty Hunter
Well this is just a re-encode of the russian TS XViD (thanks) muxed with our own line.
The video is nice so it was not worth getting....we've opted to do a few tweaks here and there on it but
nothing major.
The audio is the greatest we've had,but still better than cam audio.The audio picked up a high pitch sound for
some reason but we've cleaned it up the best we could.

Enjoy.
